<?xml version="1.0" encoding="utf-8"?>
<!-- Generator: Adobe Illustrator 27.5.0, SVG Export Plug-In . SVG Version: 6.00 Build 0)  -->
<svg version="1.1" xmlns="http://www.w3.org/2000/svg" xmlns:xlink="http://www.w3.org/1999/xlink" x="0px" y="0px"
	 viewBox="0 0 800 800" style="enable-background:new 0 0 800 800;" xml:space="preserve">
<g id="Background">
</g>
<g id="Objects">
	<path style="fill:#228FBD;" d="M404.4,538.913c-40.409,0-73.168,32.76-73.168,73.169c0,40.41,32.759,73.169,73.168,73.169
		c40.41,0,73.169-32.759,73.169-73.169C477.569,571.673,444.81,538.913,404.4,538.913z M404.4,670.899
		c-32.483,0-58.816-26.334-58.816-58.817c0-32.483,26.333-58.817,58.816-58.817s58.816,26.334,58.816,58.817
		C463.217,644.565,436.884,670.899,404.4,670.899z"/>
	<path style="fill:#1D7BA3;" d="M404.4,532.55c-43.924,0-79.532,35.608-79.532,79.532c0,43.925,35.608,79.532,79.532,79.532
		c43.925,0,79.533-35.608,79.533-79.532C483.934,568.158,448.325,532.55,404.4,532.55z M404.4,689.435
		c-42.72,0-77.351-34.633-77.351-77.353c0-42.72,34.631-77.352,77.351-77.352s77.352,34.633,77.352,77.352
		C481.752,654.802,447.12,689.435,404.4,689.435z"/>
	<g>
		<path style="fill:#4D4D4D;" d="M464.244,92.84c-15.488,0-28.059,15.719-28.219,35.185l4.463,0.017c0-0.011,0-0.02,0-0.03
			c0-16.529,10.637-29.929,23.756-29.929c13.119,0,23.754,13.399,23.754,29.929h4.465C492.295,108.551,479.727,92.84,464.244,92.84z
			"/>
		<path style="fill:#228FBD;" d="M504.295,128.003c0-0.012,0-0.022,0-0.033c0-27.867-17.932-50.458-40.051-50.458
			c-22.119,0-40.051,22.591-40.051,50.458c0,0.011,0,0.021,0,0.033l10.105,0.037c0-0.013,0-0.025,0-0.037
			c0-20.837,13.406-37.728,29.945-37.728c16.537,0,29.943,16.891,29.943,37.728H504.295z"/>
		<path style="fill:#FFFFFF;" d="M443.826,129.914c0.762,13.372,9.607,23.926,20.418,23.926c10.809,0,19.654-10.554,20.418-23.926
			H443.826z"/>
		<linearGradient id="SVGID_1_" gradientUnits="userSpaceOnUse" x1="384.5854" y1="179.0892" x2="485.6548" y2="78.0198">
			<stop  offset="0" style="stop-color:#999999"/>
			<stop  offset="1" style="stop-color:#7C7C7C"/>
		</linearGradient>
		<path style="fill:url(#SVGID_1_);" d="M362.162,194.98l15.535-10.124h9.053l-14.535,10.124h50.207l62.186-66.016l-38.943,0.924
			L314.968,194.98H362.162z M462.355,129.689h3.6l-4.107,2.86h-3.881L462.355,129.689z M452.455,136.143h4.234l-5.775,4.022h-4.635
			L452.455,136.143z M438.279,145.379h5.148l-8.709,6.066h-5.748L438.279,145.379z M416.31,159.693h6.565l-14.619,10.184h-7.572
			L416.31,159.693z"/>
		<polygon style="fill:#4D4D4D;" points="427.865,194.98 491.953,129.41 487.492,129.41 427.254,194.98 		"/>
		<polygon style="fill:#4D4D4D;" points="307.948,194.98 440.324,129.308 435.785,129.41 307.353,194.98 		"/>
	</g>
	<g>
		
			<linearGradient id="SVGID_00000026843608975137853980000008703835599508213896_" gradientUnits="userSpaceOnUse" x1="654.877" y1="194.5893" x2="654.877" y2="126.5644">
			<stop  offset="0" style="stop-color:#999999"/>
			<stop  offset="1" style="stop-color:#7C7C7C"/>
		</linearGradient>
		<path style="fill:url(#SVGID_00000026843608975137853980000008703835599508213896_);" d="M674.99,133.27h21.559l-41.672-20.753
			l-41.672,20.753h21.559l-25.955,63.7h42.068l0.125-3.981h7.75l0.125,3.981h42.068L674.99,133.27z M657.014,137.992l0.102,3.177
			h-4.477l0.101-3.177H657.014z M652.874,133.727l0.081-2.831h3.844l0.082,2.831H652.874z M657.285,146.537l0.127,4.053h-5.07
			l0.127-4.053H657.285z M657.633,157.548l0.168,5.349h-5.848l0.168-5.349H657.633z M652.955,119.035h3.844l0.082,2.557h-4.007
			L652.955,119.035z M656.623,124.597l0.066,3.102h-3.625l0.066-3.102H656.623z M651.424,179.662l0.233-7.385h6.441l0.232,7.385
			H651.424z"/>
		<path style="fill:#228FBD;" d="M666.641,80.504c-6.496,0-11.764,5.267-11.764,11.764c0,6.497,11.764,20.783,11.764,20.783
			s11.764-14.286,11.764-20.783C678.404,85.771,673.139,80.504,666.641,80.504z M666.641,99.145c-3.223,0-5.836-2.613-5.836-5.837
			c0-3.224,2.613-5.837,5.836-5.837c3.225,0,5.838,2.613,5.838,5.837C672.478,96.531,669.865,99.145,666.641,99.145z"/>
		<path style="fill:#1D7BA3;" d="M666.641,113.051c0,0,11.764-14.286,11.764-20.783c0-6.497-5.266-11.764-11.764-11.764v6.966
			c3.225,0,5.838,2.613,5.838,5.837c0,3.224-2.613,5.837-5.838,5.837V113.051z"/>
		<path style="fill:#228FBD;" d="M606.809,139.097c-12.997,0-23.535,10.538-23.535,23.535c0,12.999,23.535,41.581,23.535,41.581
			s23.537-28.582,23.537-41.581C630.346,149.634,619.807,139.097,606.809,139.097z M606.809,176.39
			c-6.449,0-11.678-5.229-11.678-11.678c0-6.449,5.229-11.677,11.678-11.677c6.451,0,11.679,5.228,11.679,11.677
			C618.487,171.161,613.26,176.39,606.809,176.39z"/>
		<path style="fill:#1D7BA3;" d="M606.809,204.212c0,0,23.537-28.582,23.537-41.581c0-12.998-10.539-23.535-23.537-23.535v13.938
			c6.451,0,11.679,5.228,11.679,11.677c0,6.45-5.228,11.678-11.679,11.678V204.212z"/>
		<path style="fill:none;" d="M685.953,154.743c0,17.162-13.914,31.075-31.076,31.075c-17.162,0-31.075-13.913-31.075-31.075
			c0-17.163,13.913-31.076,31.075-31.076C672.039,123.668,685.953,137.581,685.953,154.743z"/>
	</g>
	<g>
		<g>
			<path style="fill:#228FBD;" d="M217.167,146.231c5.715,24.859-13.729,52.293-52.777,52.293
				c-39.047,0-58.492-27.434-52.777-52.293c-10.944,27.149,9.069,60.313,52.777,60.313S228.111,173.38,217.167,146.231z"/>
		</g>
		
			<linearGradient id="SVGID_00000182525574645563807580000012609250456127998854_" gradientUnits="userSpaceOnUse" x1="164.3906" y1="197.0112" x2="164.3906" y2="97.1439">
			<stop  offset="0" style="stop-color:#999999"/>
			<stop  offset="1" style="stop-color:#7C7C7C"/>
		</linearGradient>
		<path style="fill:url(#SVGID_00000182525574645563807580000012609250456127998854_);" d="M212.856,136.892l-14.459-26.495h8.075
			l-23.216-11.261l-17.359,11.261h6.22l2.253,26.495c0.429,4.421-4.024,8.293-9.98,8.293c-5.956,0-10.409-3.872-9.98-8.293
			l3.332-34.344l-15.653,7.038l-9.913-7.188l-16.252,34.494c-12.123,25.731,6.492,58.442,48.466,58.442
			C206.364,195.335,224.979,162.624,212.856,136.892z"/>
		<g style="opacity:0.6;">
			
				<linearGradient id="SVGID_00000045601021398748766190000005992615602378992011_" gradientUnits="userSpaceOnUse" x1="163.8323" y1="171.8067" x2="163.8323" y2="124.5899">
				<stop  offset="0" style="stop-color:#FFFFFF"/>
				<stop  offset="1" style="stop-color:#FFFFFF;stop-opacity:0"/>
			</linearGradient>
			<path style="fill:url(#SVGID_00000045601021398748766190000005992615602378992011_);" d="M163.313,173.185
				c-5.254-0.088-10.039-0.828-14.22-2.2l0.936-2.851c3.895,1.278,8.382,1.968,13.334,2.051L163.313,173.185z M184.404,168.956
				l-1.378-2.665c4.141-2.143,7.332-5.112,9.484-8.828l2.596,1.504C192.663,163.185,189.062,166.545,184.404,168.956z
				 M132.501,157.19c-1.67-3.52-2.517-7.446-2.517-11.668c0-0.904,0.04-1.828,0.118-2.748l2.989,0.255
				c-0.071,0.835-0.107,1.674-0.107,2.493c0,3.773,0.749,7.267,2.228,10.382L132.501,157.19z M194.757,138.195
				c-0.18-0.776-0.391-1.565-0.627-2.345l-3.67-10.816l2.841-0.964l3.686,10.863c0.271,0.89,0.499,1.744,0.694,2.586
				L194.757,138.195z M138.897,123.3l-2.833-0.987l4.609-13.22l2.833,0.987L138.897,123.3z"/>
		</g>
	</g>
	<g>
		
			<linearGradient id="SVGID_00000086671003874947055850000009991898880178196142_" gradientUnits="userSpaceOnUse" x1="621.8992" y1="435.4296" x2="621.8992" y2="377.223">
			<stop  offset="0" style="stop-color:#999999"/>
			<stop  offset="1" style="stop-color:#7C7C7C"/>
		</linearGradient>
		<path style="fill:url(#SVGID_00000086671003874947055850000009991898880178196142_);" d="M642.894,434.912
			c-1.183-0.444-1.972-0.743-1.972-0.743l1.584-4.245c0,0,0.782,0.269,1.956,0.675c1.178,0.392,2.731,0.964,4.311,1.454
			c0.787,0.254,1.574,0.507,2.313,0.744c0.684,0.223,1.312,0.403,1.871,0.574c5.769-1.186,11.554-2.453,17.168-3.572
			c-10.25-16.199-24.264-16.151-47.826-31.692c-23.562-15.541,39.389-31.939,39.389-31.939s-72.436-8.322-85.821,23.921
			c-11.623,28.003,26.215,43.92,38.169,45.658c10.548,1.531,16.437,3.186,29.597-0.557
			C643.375,435.093,643.122,434.997,642.894,434.912z M628.671,370.147c1.222-0.263,2.88-0.553,4.528-0.857
			c1.654-0.274,3.303-0.563,4.546-0.737c1.242-0.186,2.069-0.31,2.069-0.31l0.113,0.715c0,0-0.82,0.151-2.051,0.376
			c-1.233,0.215-2.865,0.557-4.499,0.883c-1.626,0.357-3.25,0.696-4.47,1.001c-1.219,0.291-2.032,0.485-2.032,0.485l-0.251-1.138
			C626.625,370.565,627.443,370.397,628.671,370.147z M608.931,375.824c0.575-0.247,1.254-0.526,2.014-0.791
			c0.749-0.272,1.548-0.574,2.349-0.853c0.803-0.26,1.606-0.518,2.359-0.761c0.75-0.254,1.464-0.443,2.07-0.62
			c1.214-0.347,2.024-0.579,2.024-0.579l0.386,1.344c0,0-0.791,0.254-1.98,0.637c-0.592,0.193-1.289,0.403-2.019,0.677
			c-0.732,0.263-1.513,0.544-2.294,0.825c-0.769,0.298-1.528,0.614-2.246,0.9c-0.715,0.274-1.381,0.574-1.952,0.842
			c-1.141,0.523-1.903,0.871-1.903,0.871l-0.739-1.684C606.999,376.63,607.771,376.308,608.931,375.824z M599.012,410.182
			c0,0-0.145-0.15-0.399-0.412c-0.246-0.25-0.642-0.671-1.076-1.153c-0.869-0.973-1.987-2.318-2.953-3.802
			c-0.979-1.469-1.787-3.073-2.261-4.341c-0.242-0.63-0.409-1.171-0.518-1.553c-0.104-0.383-0.163-0.602-0.163-0.602l2.642-0.685
			c0,0,0.056,0.183,0.152,0.503c0.101,0.319,0.255,0.772,0.478,1.304c0.435,1.068,1.179,2.446,2.092,3.732
			c0.896,1.296,1.956,2.497,2.782,3.369c0.418,0.435,0.744,0.767,1.019,1.03c0.263,0.254,0.414,0.4,0.414,0.4L599.012,410.182z
			 M601.372,382.067c-0.29,0.204-0.693,0.511-1.167,0.886c-0.941,0.757-2.15,1.822-3.158,3.032c-0.511,0.6-0.975,1.229-1.353,1.848
			c-0.391,0.611-0.695,1.212-0.921,1.736c-0.111,0.263-0.217,0.504-0.282,0.707c-0.072,0.209-0.139,0.37-0.189,0.561
			c-0.102,0.353-0.16,0.554-0.16,0.554l-2.4-0.738c0,0,0.066-0.199,0.178-0.548c0.049-0.164,0.149-0.413,0.254-0.683
			c0.102-0.279,0.234-0.561,0.379-0.87c0.291-0.618,0.677-1.315,1.151-2.012c0.467-0.705,1.023-1.405,1.619-2.063
			c1.181-1.327,2.536-2.438,3.574-3.218c0.522-0.388,0.963-0.699,1.277-0.907c0.315-0.21,0.493-0.329,0.493-0.329l1.155,1.718
			C601.823,381.742,601.66,381.86,601.372,382.067z M615.81,422.429c0,0-0.721-0.424-1.8-1.061c-0.539-0.32-1.168-0.679-1.849-1.119
			c-0.679-0.428-1.402-0.884-2.126-1.34c-0.706-0.48-1.411-0.957-2.073-1.406c-0.665-0.439-1.266-0.883-1.778-1.267
			c-1.029-0.764-1.716-1.273-1.716-1.273l2.004-2.659c0,0,0.67,0.469,1.676,1.168c0.499,0.353,1.087,0.76,1.739,1.166
			c0.649,0.411,1.34,0.85,2.03,1.29c0.702,0.415,1.404,0.829,2.061,1.217c0.647,0.394,1.299,0.741,1.846,1.044
			c1.098,0.604,1.83,1.007,1.83,1.007L615.81,422.429z M634.329,431.486c0,0-0.766-0.331-1.914-0.829
			c-1.141-0.484-2.696-1.202-4.233-1.897c-1.524-0.723-3.054-1.429-4.183-2.005c-1.135-0.562-1.891-0.937-1.891-0.937l1.729-3.528
			c0,0,0.75,0.344,1.875,0.86c1.116,0.528,2.636,1.178,4.146,1.839c1.524,0.637,3.018,1.274,4.194,1.731
			c1.162,0.466,1.936,0.773,1.936,0.773L634.329,431.486z"/>
		<path style="fill:#228FBD;" d="M654.861,326.088c1.183,0.446,1.972,0.744,1.972,0.744l-1.583,4.244c0,0-0.783-0.269-1.957-0.672
			c-1.177-0.393-2.732-0.966-4.311-1.456c-0.788-0.253-1.574-0.506-2.311-0.744c-0.685-0.224-1.314-0.405-1.872-0.575
			c-5.767,1.186-11.555,2.452-17.167,3.572c10.249,16.2,24.264,16.152,47.826,31.693c23.561,15.541-39.391,31.939-39.391,31.939
			s72.438,8.323,85.822-23.92c11.624-28.002-26.216-43.92-38.17-45.657c-10.548-1.533-16.435-3.189-29.595,0.555
			C654.38,325.908,654.634,326.004,654.861,326.088z M669.084,390.853c-1.222,0.264-2.88,0.554-4.528,0.858
			c-1.653,0.274-3.303,0.563-4.546,0.737c-1.242,0.186-2.069,0.31-2.069,0.31l-0.114-0.716c0,0,0.821-0.15,2.051-0.376
			c1.233-0.215,2.866-0.556,4.5-0.882c1.627-0.358,3.25-0.697,4.47-1.002c1.22-0.29,2.031-0.484,2.031-0.484l0.252,1.138
			C671.13,390.436,670.313,390.603,669.084,390.853z M688.824,385.177c-0.575,0.247-1.255,0.526-2.013,0.791
			c-0.75,0.272-1.55,0.575-2.35,0.853c-0.804,0.26-1.606,0.519-2.359,0.762c-0.75,0.253-1.463,0.441-2.07,0.618
			c-1.214,0.348-2.024,0.579-2.024,0.579l-0.387-1.343c0,0,0.793-0.255,1.979-0.637c0.593-0.193,1.29-0.403,2.021-0.678
			c0.732-0.263,1.512-0.544,2.295-0.824c0.769-0.299,1.528-0.614,2.245-0.899c0.714-0.275,1.381-0.575,1.952-0.843
			c1.142-0.521,1.904-0.87,1.904-0.87l0.737,1.684C690.755,384.37,689.983,384.692,688.824,385.177z M698.743,350.819
			c0,0,0.146,0.15,0.4,0.412c0.246,0.25,0.642,0.67,1.075,1.154c0.869,0.973,1.987,2.319,2.953,3.8
			c0.979,1.469,1.788,3.074,2.261,4.34c0.242,0.63,0.409,1.172,0.517,1.554c0.104,0.383,0.164,0.602,0.164,0.602l-2.642,0.685
			c0,0-0.055-0.183-0.153-0.503c-0.101-0.319-0.253-0.772-0.478-1.304c-0.434-1.069-1.178-2.445-2.091-3.732
			c-0.897-1.295-1.955-2.497-2.782-3.368c-0.417-0.436-0.744-0.769-1.02-1.032c-0.262-0.254-0.413-0.4-0.413-0.4L698.743,350.819z
			 M696.384,378.933c0.289-0.205,0.692-0.51,1.166-0.886c0.94-0.756,2.15-1.822,3.157-3.033c0.511-0.599,0.976-1.228,1.354-1.847
			c0.389-0.611,0.694-1.211,0.92-1.735c0.111-0.263,0.217-0.505,0.281-0.707c0.073-0.209,0.14-0.371,0.19-0.562
			c0.101-0.352,0.158-0.553,0.158-0.553l2.401,0.737c0,0-0.066,0.2-0.179,0.548c-0.047,0.163-0.148,0.413-0.252,0.682
			c-0.102,0.279-0.235,0.561-0.379,0.871c-0.292,0.619-0.678,1.315-1.152,2.011c-0.467,0.705-1.023,1.406-1.618,2.063
			c-1.181,1.326-2.536,2.438-3.575,3.218c-0.522,0.387-0.964,0.699-1.278,0.907c-0.314,0.209-0.493,0.329-0.493,0.329l-1.155-1.718
			C695.931,379.259,696.095,379.14,696.384,378.933z M681.945,338.573c0,0,0.72,0.423,1.8,1.06c0.539,0.32,1.167,0.679,1.85,1.119
			c0.679,0.428,1.402,0.885,2.126,1.341c0.705,0.478,1.409,0.957,2.072,1.405c0.665,0.439,1.267,0.884,1.779,1.269
			c1.029,0.762,1.714,1.271,1.714,1.271l-2.003,2.659c0,0-0.669-0.467-1.676-1.167c-0.499-0.353-1.086-0.761-1.74-1.165
			c-0.648-0.412-1.339-0.852-2.029-1.292c-0.701-0.414-1.403-0.828-2.062-1.216c-0.646-0.393-1.298-0.742-1.845-1.044
			c-1.098-0.604-1.83-1.007-1.83-1.007L681.945,338.573z M663.425,329.515c0,0,0.766,0.332,1.914,0.829
			c1.142,0.484,2.698,1.202,4.234,1.897c1.523,0.723,3.054,1.43,4.184,2.004c1.133,0.563,1.89,0.937,1.89,0.937l-1.729,3.529
			c0,0-0.75-0.344-1.874-0.861c-1.118-0.528-2.637-1.177-4.148-1.84c-1.524-0.634-3.017-1.273-4.195-1.732
			c-1.161-0.464-1.937-0.773-1.937-0.773L663.425,329.515z"/>
		<path style="fill:none;" d="M655.246,383.928c0,4.209-3.412,7.621-7.621,7.621s-7.62-3.412-7.62-7.621
			c0-4.208,3.411-7.62,7.62-7.62S655.246,379.72,655.246,383.928z"/>
	</g>
	<g>
		
			<linearGradient id="SVGID_00000056405554569067143450000010259613166081080742_" gradientUnits="userSpaceOnUse" x1="119.3948" y1="442.3718" x2="200.27" y2="361.4966">
			<stop  offset="0" style="stop-color:#999999"/>
			<stop  offset="1" style="stop-color:#7C7C7C"/>
		</linearGradient>
		<path style="fill:url(#SVGID_00000056405554569067143450000010259613166081080742_);" d="M161.348,338.022l0.116,1.914h-3.678
			l0.145-1.914H142.87l-51.553,76.272h137.031l-51.553-76.272H161.348z M165.706,410.197h-13.243l1.587-20.955h10.391
			L165.706,410.197z M163.391,371.865h-8.024l0.637-8.407h6.88L163.391,371.865z M162.385,355.205h-5.756l0.342-4.508h5.143
			L162.385,355.205z M161.823,345.887h-4.488l0.212-2.806h4.106L161.823,345.887z"/>
		<path style="fill:#228FBD;" d="M80.522,414.294l6.167-18.923l-19.679,5.247l34.543-28.206l-20.768,6.559l31.486-21.647
			l-14.759,4.592l38.584-23.895L80.522,414.294L80.522,414.294z"/>
		<path style="fill:#228FBD;" d="M239.143,414.294l-55.575-76.272l38.583,23.895l-14.759-4.592l31.486,21.647l-20.768-6.559
			l34.542,28.206l-19.678-5.247L239.143,414.294L239.143,414.294z"/>
		
			<linearGradient id="SVGID_00000039096696668281806060000002897282145917633470_" gradientUnits="userSpaceOnUse" x1="91.3169" y1="422.7227" x2="228.3481" y2="422.7227">
			<stop  offset="0" style="stop-color:#999999"/>
			<stop  offset="1" style="stop-color:#7C7C7C"/>
		</linearGradient>
		<polygon style="fill:url(#SVGID_00000039096696668281806060000002897282145917633470_);" points="91.317,418.414 228.348,418.414 
			221.914,427.031 97.752,427.031 		"/>
	</g>
	<g>
		<g>
			<polygon style="fill:#228FBD;" points="406.74,358.157 383.118,389.668 383.118,389.668 404.386,363.063 431.845,395.088 
				451.434,379.147 451.434,379.147 434.197,390.183 			"/>
			<path style="fill:#228FBD;" d="M454.738,439.612c-2.286,1.939-4.156,1.073-4.156-1.925v-9.246H346.543
				c-4.99,0-9.552-2.817-11.787-7.279c-1.427-2.85-1.743-6.057-1.011-9.044l-0.112,0.15c-2.988,3.996-3.465,9.337-1.23,13.799
				c2.235,4.462,6.797,7.279,11.787,7.279h104.038v9.246c0,2.998,1.871,3.864,4.156,1.925l24.55-20.828
				c1.375-1.166,1.917-2.776,1.639-4.298L454.738,439.612z"/>
		</g>
		
			<linearGradient id="SVGID_00000002376744546165312810000013364202913128636051_" gradientUnits="userSpaceOnUse" x1="335.0612" y1="377.6934" x2="482.7029" y2="377.6934">
			<stop  offset="0" style="stop-color:#999999"/>
			<stop  offset="1" style="stop-color:#7C7C7C"/>
		</linearGradient>
		<path style="fill:url(#SVGID_00000002376744546165312810000013364202913128636051_);" d="M480.988,406.972l-24.55-20.827
			c-2.285-1.939-4.156-1.073-4.156,1.924v9.247h-77.717l32.311-43.201l27.458,32.026l21.054-14.138l-38.714-47.635
			c-2.561-3.151-6.43-4.934-10.495-4.865c-4.061,0.082-7.858,2.032-10.291,5.285l-58.201,77.815
			c-2.988,3.996-3.465,9.337-1.23,13.799c2.234,4.462,6.797,7.279,11.787,7.279h104.039v9.246c0,2.998,1.871,3.864,4.156,1.925
			l24.55-20.828C483.274,412.084,483.274,408.911,480.988,406.972z"/>
		
			<polyline style="fill:none;stroke:#FFFFFF;stroke-width:4.2524;stroke-linejoin:round;stroke-miterlimit:10;stroke-dasharray:16.1593,22.1128;" points="
			473.064,410.498 348.244,410.498 406.444,332.682 441.183,375.425 		"/>
	</g>
	<g>
		<g>
			<path style="fill:#228FBD;" d="M650.882,603.115c-12.112,0-21.931,5.923-21.931,13.228c0,1.657,0.511,3.244,1.434,4.706
				c3.147-4.981,11.134-8.522,20.497-8.522c9.363,0,17.352,3.54,20.497,8.522c0.924-1.462,1.435-3.049,1.435-4.706
				C672.813,609.038,662.994,603.115,650.882,603.115z"/>
			<path style="fill:#228FBD;" d="M650.882,669.251c-36.055,0-66.56-16.034-71.784-36.924c0.006,1.648,0.01,2.854,0.01,3.048
				c0,23.906,32.134,43.288,71.774,43.288c39.641,0,71.775-19.382,71.775-43.288c0-0.852-0.046-1.695-0.126-2.533
				C716.94,653.479,686.642,669.251,650.882,669.251z"/>
		</g>
		
			<linearGradient id="SVGID_00000063594596931030665270000005323260092797351331_" gradientUnits="userSpaceOnUse" x1="650.8823" y1="664.517" x2="650.8823" y2="567.2007">
			<stop  offset="0" style="stop-color:#999999"/>
			<stop  offset="1" style="stop-color:#7C7C7C"/>
		</linearGradient>
		<path style="fill:url(#SVGID_00000063594596931030665270000005323260092797351331_);" d="M650.882,577.215
			c-39.641,0-71.774,16.976-71.774,40.884c0,23.907,32.134,45.693,71.774,45.693c39.641,0,71.775-21.786,71.775-45.693
			C722.657,594.19,690.522,577.215,650.882,577.215z M650.882,624.109c-12.112,0-21.931-5.921-21.931-13.226
			c0-7.306,9.818-13.227,21.931-13.227s21.932,5.922,21.932,13.227C672.813,618.188,662.994,624.109,650.882,624.109z"/>
		<g style="opacity:0.75;">
			
				<linearGradient id="SVGID_00000070817981398940581690000007512556601606097820_" gradientUnits="userSpaceOnUse" x1="654.4331" y1="694.5172" x2="654.4331" y2="574.0186">
				<stop  offset="0" style="stop-color:#F2F2F2"/>
				<stop  offset="1" style="stop-color:#F2F2F2;stop-opacity:0"/>
			</linearGradient>
			<path style="fill:url(#SVGID_00000070817981398940581690000007512556601606097820_);" d="M650.024,586.488
				c0,0,2.203-0.012,4.408-0.024c2.202,0.077,4.404,0.155,4.404,0.155l0.005-0.1c0,0-2.204-0.053-4.409-0.105
				C652.227,586.452,650.024,586.488,650.024,586.488z"/>
			
				<linearGradient id="SVGID_00000075866848734953866210000010275028291929475221_" gradientUnits="userSpaceOnUse" x1="683.4907" y1="694.5899" x2="683.4907" y2="574.0093">
				<stop  offset="0" style="stop-color:#F2F2F2"/>
				<stop  offset="1" style="stop-color:#F2F2F2;stop-opacity:0"/>
			</linearGradient>
			<path style="fill:url(#SVGID_00000075866848734953866210000010275028291929475221_);" d="M685.153,591.756
				c-0.485-0.19-0.999-0.402-1.519-0.597c-0.523-0.186-1.048-0.373-1.54-0.547c-0.489-0.185-0.952-0.317-1.345-0.444
				c-0.788-0.249-1.315-0.415-1.315-0.415l-0.189,0.567c0,0,0.52,0.183,1.3,0.458c0.389,0.14,0.851,0.288,1.321,0.485
				c0.476,0.19,0.981,0.395,1.488,0.598c0.503,0.217,0.997,0.452,1.465,0.662c0.47,0.205,0.896,0.419,1.26,0.609
				c0.728,0.372,1.214,0.621,1.214,0.621l0.443-0.871c0,0-0.509-0.228-1.271-0.571C686.087,592.136,685.642,591.94,685.153,591.756z
				"/>
			
				<linearGradient id="SVGID_00000111172992504178221080000013800039422663144869_" gradientUnits="userSpaceOnUse" x1="700.1813" y1="694.583" x2="700.1813" y2="574.0028">
				<stop  offset="0" style="stop-color:#F2F2F2"/>
				<stop  offset="1" style="stop-color:#F2F2F2;stop-opacity:0"/>
			</linearGradient>
			<path style="fill:url(#SVGID_00000111172992504178221080000013800039422663144869_);" d="M702.037,610.445
				c-0.005-0.131-0.011-0.259-0.015-0.383c-0.01-0.123-0.02-0.243-0.031-0.357c-0.035-0.475-0.087-0.818-0.126-1.049
				c-0.035-0.238-0.058-0.376-0.058-0.376l-2.123,0.26c0,0,0.014,0.138,0.035,0.378c0.027,0.246,0.057,0.587,0.057,0.939
				c0.001,0.092,0.005,0.188,0.008,0.285c-0.003,0.1-0.005,0.203-0.008,0.309c-0.012,0.228-0.003,0.507-0.031,0.724
				c-0.033,0.447-0.1,0.949-0.185,1.454c-0.093,0.5-0.21,0.996-0.341,1.455c-0.141,0.457-0.271,0.884-0.416,1.24
				c-0.129,0.36-0.263,0.653-0.354,0.857c-0.089,0.205-0.142,0.322-0.142,0.322l2.453,1.053c0,0,0.051-0.139,0.14-0.382
				c0.092-0.241,0.222-0.586,0.348-1.013c0.141-0.42,0.266-0.926,0.395-1.465c0.12-0.543,0.221-1.128,0.295-1.718
				c0.063-0.587,0.106-1.183,0.11-1.768C702.063,610.911,702.04,610.691,702.037,610.445z"/>
			
				<linearGradient id="SVGID_00000163041140508799900400000017989105112940177050_" gradientUnits="userSpaceOnUse" x1="681.1104" y1="694.581" x2="681.1104" y2="574.0096">
				<stop  offset="0" style="stop-color:#F2F2F2"/>
				<stop  offset="1" style="stop-color:#F2F2F2;stop-opacity:0"/>
			</linearGradient>
			<path style="fill:url(#SVGID_00000163041140508799900400000017989105112940177050_);" d="M682.885,630.451
				c-0.372,0.19-0.798,0.412-1.237,0.611c-0.444,0.207-0.918,0.429-1.392,0.652c-0.491,0.209-0.982,0.419-1.44,0.615
				c-0.458,0.203-0.897,0.362-1.269,0.509c-0.747,0.288-1.245,0.48-1.245,0.48l1.481,3.843c0,0,0.523-0.224,1.309-0.556
				c0.392-0.169,0.855-0.354,1.335-0.587c0.482-0.226,0.998-0.467,1.514-0.707c0.516-0.264,1.031-0.527,1.515-0.773
				c0.493-0.247,0.919-0.482,1.271-0.689c0.716-0.413,1.194-0.686,1.194-0.686l-1.809-3.338
				C684.111,629.826,683.621,630.075,682.885,630.451z"/>
			
				<linearGradient id="SVGID_00000109715858021034855290000006811537553378699947_" gradientUnits="userSpaceOnUse" x1="652.46" y1="694.5737" x2="652.46" y2="574.018">
				<stop  offset="0" style="stop-color:#F2F2F2"/>
				<stop  offset="1" style="stop-color:#F2F2F2;stop-opacity:0"/>
			</linearGradient>
			<path style="fill:url(#SVGID_00000109715858021034855290000006811537553378699947_);" d="M655.236,637.716
				c-0.408,0.024-0.905,0.071-1.399,0.091c-0.493,0.02-1.022,0.042-1.551,0.065c-0.243,0.008-0.572,0.028-0.743,0.024
				c-0.271,0.004-0.538,0.007-0.797,0.01c-0.517,0.008-0.998,0.016-1.412,0.022c-0.826,0.012-1.377,0.021-1.377,0.021l0.043,4.565
				c0,0,0.551-0.001,1.377-0.005c0.414-0.002,0.895-0.004,1.412-0.006c0.259-0.001,0.526-0.004,0.798-0.005
				c0.371-0.003,0.593-0.026,0.899-0.039c0.573-0.03,1.147-0.06,1.683-0.089c0.539-0.027,1.003-0.078,1.42-0.109
				c0.822-0.069,1.374-0.115,1.374-0.115l-0.352-4.528C656.61,637.616,656.06,637.655,655.236,637.716z"/>
			
				<linearGradient id="SVGID_00000023269667964023203060000016989340460694210442_" gradientUnits="userSpaceOnUse" x1="623.1909" y1="694.5803" x2="623.1909" y2="574.0098">
				<stop  offset="0" style="stop-color:#F2F2F2"/>
				<stop  offset="1" style="stop-color:#F2F2F2;stop-opacity:0"/>
			</linearGradient>
			<path style="fill:url(#SVGID_00000023269667964023203060000016989340460694210442_);" d="M625.39,634.441
				c-0.467-0.155-0.965-0.319-1.462-0.485c-0.995-0.372-2.007-0.724-2.736-1.044c-0.738-0.306-1.229-0.51-1.229-0.51l-1.619,3.534
				c0,0,0.517,0.236,1.297,0.59c0.773,0.369,1.834,0.779,2.892,1.214c0.54,0.201,1.083,0.399,1.591,0.588
				c0.517,0.198,0.965,0.337,1.359,0.469c0.785,0.26,1.309,0.432,1.309,0.432l1.247-3.989c0,0-0.529-0.156-1.322-0.389
				C626.321,634.732,625.844,634.601,625.39,634.441z"/>
			
				<linearGradient id="SVGID_00000015343350743070426340000002071513489015932604_" gradientUnits="userSpaceOnUse" x1="602.0896" y1="694.5842" x2="602.0896" y2="574.0094">
				<stop  offset="0" style="stop-color:#F2F2F2"/>
				<stop  offset="1" style="stop-color:#F2F2F2;stop-opacity:0"/>
			</linearGradient>
			<path style="fill:url(#SVGID_00000015343350743070426340000002071513489015932604_);" d="M603.784,619.356
				c-0.173-0.324-0.374-0.708-0.562-1.154c-0.104-0.217-0.198-0.445-0.28-0.681c-0.084-0.236-0.191-0.472-0.259-0.716
				c-0.074-0.243-0.15-0.485-0.224-0.726c-0.058-0.243-0.114-0.483-0.171-0.714c-0.063-0.231-0.087-0.46-0.128-0.675
				c-0.031-0.216-0.081-0.418-0.091-0.608c-0.02-0.191-0.037-0.364-0.051-0.518c-0.008-0.077-0.016-0.15-0.022-0.217
				c-0.008-0.023-0.008-0.125-0.012-0.175c-0.011-0.241-0.018-0.379-0.018-0.379l-2.233,0.031c0,0-0.002,0.138-0.006,0.379
				c0.001,0.07-0.006,0.103,0,0.224c0.002,0.078,0.006,0.163,0.009,0.253c0.008,0.182,0.016,0.385,0.023,0.608
				c0.001,0.223,0.042,0.461,0.063,0.717c0.03,0.253,0.048,0.523,0.103,0.796c0.048,0.274,0.098,0.558,0.148,0.846
				c0.069,0.285,0.139,0.573,0.208,0.861c0.065,0.292,0.167,0.569,0.249,0.851c0.081,0.28,0.174,0.552,0.276,0.81
				c0.184,0.517,0.398,1.006,0.591,1.424c0.188,0.438,0.345,0.695,0.454,0.926c0.109,0.215,0.172,0.338,0.172,0.338l2.428-1.333
				c0,0-0.07-0.117-0.192-0.326C604.15,619.998,603.934,619.671,603.784,619.356z"/>
			
				<linearGradient id="SVGID_00000162346166660727809350000017962345881960880031_" gradientUnits="userSpaceOnUse" x1="615.9502" y1="694.5495" x2="615.9502" y2="574.0175">
				<stop  offset="0" style="stop-color:#F2F2F2"/>
				<stop  offset="1" style="stop-color:#F2F2F2;stop-opacity:0"/>
			</linearGradient>
			<path style="fill:url(#SVGID_00000162346166660727809350000017962345881960880031_);" d="M620.072,592.625l-0.241-0.594
				c0,0-0.513,0.21-1.282,0.526c-0.775,0.303-1.781,0.769-2.797,1.223c-0.503,0.239-0.999,0.499-1.469,0.733
				c-0.476,0.23-0.899,0.465-1.256,0.672c-0.72,0.405-1.199,0.676-1.199,0.676l0.539,0.9c0,0,0.465-0.293,1.164-0.736
				c0.349-0.227,0.757-0.479,1.202-0.722c0.442-0.249,0.911-0.526,1.391-0.784c0.486-0.25,0.974-0.5,1.431-0.732
				c0.453-0.244,0.896-0.427,1.268-0.6C619.574,592.851,620.072,592.625,620.072,592.625z"/>
			
				<linearGradient id="SVGID_00000134216178557667907050000015453654050203027594_" gradientUnits="userSpaceOnUse" x1="644.5034" y1="694.4025" x2="644.5034" y2="574.0329">
				<stop  offset="0" style="stop-color:#F2F2F2"/>
				<stop  offset="1" style="stop-color:#F2F2F2;stop-opacity:0"/>
			</linearGradient>
			<path style="fill:url(#SVGID_00000134216178557667907050000015453654050203027594_);" d="M648.899,586.525
				c0,0-2.202,0.125-4.404,0.252c-2.193,0.218-4.388,0.436-4.388,0.436l0.013,0.111c0,0,2.19-0.243,4.383-0.484
				c2.198-0.15,4.397-0.303,4.397-0.303V586.525z"/>
		</g>
	</g>
	<g>
		<g>
			<path style="fill:#228FBD;" d="M148.379,682.479c-15.848-2.771-56.302-19.727-59.815-49.165
				c-3.988,34.537,42.537,54.421,59.815,57.441l41.115-41.114v-8.066L148.379,682.479z"/>
			<path style="fill:#228FBD;" d="M181.763,588.756c-16.981,7.545-31.875,17.396-26.835,27.49
				c8.427-17.844,66.586-36.447,66.586-36.447s0.374-4.114,0.374-6.418c-4.022,1.411-30.94,11.518-35.188,13.267L181.763,588.756z"
				/>
		</g>
		
			<linearGradient id="SVGID_00000013166033327208410590000003291456105630163337_" gradientUnits="userSpaceOnUse" x1="154.9151" y1="674.732" x2="154.9151" y2="586.6442">
			<stop  offset="0" style="stop-color:#999999"/>
			<stop  offset="1" style="stop-color:#7C7C7C"/>
		</linearGradient>
		<path style="fill:url(#SVGID_00000013166033327208410590000003291456105630163337_);" d="M189.494,633.932
			c-8.126-4.028-17.247-8.86-27.591-15.683c-35.658-23.518,59.61-48.336,59.61-48.336s-109.624-12.596-129.88,36.199
			c-17.273,41.619,37.633,65.593,56.747,68.934L189.494,633.932z M171.548,575.934c1.849-0.396,4.358-0.836,6.854-1.297
			c2.503-0.414,4.998-0.852,6.879-1.114c1.88-0.283,3.131-0.47,3.131-0.47l0.171,1.083c0,0-1.241,0.229-3.104,0.568
			c-1.866,0.325-4.336,0.842-6.809,1.336c-2.461,0.541-4.919,1.054-6.764,1.515c-1.845,0.44-3.076,0.735-3.076,0.735l-0.38-1.724
			C168.452,576.566,169.69,576.313,171.548,575.934z M141.674,584.526c0.87-0.374,1.897-0.795,3.047-1.196
			c1.134-0.411,2.342-0.869,3.555-1.292c1.215-0.394,2.431-0.784,3.57-1.15c1.135-0.384,2.216-0.671,3.133-0.938
			c1.837-0.524,3.064-0.876,3.064-0.876l0.583,2.033c0,0-1.197,0.384-2.996,0.964c-0.895,0.292-1.951,0.609-3.057,1.023
			c-1.108,0.398-2.289,0.824-3.472,1.249c-1.164,0.449-2.313,0.929-3.399,1.361c-1.082,0.415-2.09,0.869-2.955,1.274
			c-1.726,0.79-2.88,1.316-2.88,1.316l-1.119-2.548C138.75,585.747,139.919,585.26,141.674,584.526z M126.662,636.521
			c0,0-0.22-0.228-0.604-0.623c-0.373-0.378-0.971-1.014-1.629-1.743c-1.315-1.473-3.008-3.51-4.469-5.756
			c-1.481-2.223-2.705-4.649-3.421-6.567c-0.367-0.955-0.619-1.774-0.783-2.351c-0.157-0.579-0.247-0.91-0.247-0.91l3.998-1.037
			c0,0,0.085,0.277,0.23,0.762c0.152,0.482,0.386,1.168,0.723,1.973c0.658,1.616,1.784,3.703,3.166,5.648
			c1.357,1.963,2.96,3.78,4.211,5.099c0.632,0.659,1.126,1.161,1.541,1.561c0.398,0.384,0.626,0.606,0.626,0.606L126.662,636.521z
			 M130.234,593.977c-0.439,0.308-1.049,0.77-1.766,1.339c-1.424,1.146-3.254,2.757-4.78,4.59c-0.773,0.907-1.475,1.859-2.046,2.796
			c-0.591,0.926-1.053,1.833-1.394,2.629c-0.169,0.396-0.329,0.762-0.427,1.069c-0.109,0.316-0.211,0.559-0.286,0.849
			c-0.154,0.535-0.242,0.839-0.242,0.839l-3.633-1.117c0,0,0.101-0.301,0.269-0.831c0.074-0.247,0.226-0.623,0.384-1.031
			c0.154-0.423,0.355-0.849,0.574-1.318c0.44-0.934,1.024-1.988,1.742-3.044c0.706-1.067,1.549-2.126,2.451-3.122
			c1.787-2.007,3.838-3.688,5.409-4.868c0.791-0.588,1.457-1.058,1.933-1.374c0.478-0.316,0.747-0.496,0.747-0.496l1.749,2.598
			C130.917,593.482,130.67,593.662,130.234,593.977z M140.207,647.604c-1.006-0.665-1.915-1.336-2.691-1.918
			c-1.558-1.156-2.597-1.928-2.597-1.928l3.033-4.026c0,0,1.014,0.71,2.536,1.769c0.755,0.534,1.645,1.149,2.632,1.765
			c0.983,0.623,2.028,1.285,3.073,1.953c1.063,0.627,2.125,1.254,3.12,1.842c0.978,0.595,1.965,1.12,2.793,1.579
			c1.662,0.916,2.77,1.524,2.77,1.524l-2.792,4.895c0,0-1.091-0.641-2.724-1.604c-0.815-0.484-1.767-1.029-2.797-1.693
			c-1.027-0.648-2.123-1.34-3.218-2.028C142.276,649.005,141.21,648.283,140.207,647.604z"/>
		<path style="fill:#228FBD;" d="M228.795,529.865c-7.33,0-13.275,5.944-13.275,13.275c0,7.333,13.275,23.454,13.275,23.454
			s13.275-16.121,13.275-23.454C242.07,535.81,236.128,529.865,228.795,529.865z M228.795,550.9c-3.637,0-6.585-2.948-6.585-6.587
			c0-3.637,2.949-6.586,6.585-6.586c3.639,0,6.588,2.949,6.588,6.586C235.383,547.952,232.434,550.9,228.795,550.9z"/>
		<path style="fill:#1D7BA3;" d="M228.795,566.595c0,0,13.275-16.121,13.275-23.454c0-7.331-5.942-13.275-13.275-13.275v7.862
			c3.639,0,6.588,2.949,6.588,6.586c0,3.639-2.949,6.587-6.588,6.587V566.595z"/>
	</g>
	
		<linearGradient id="SVGID_00000131341436873960839550000015142529726376168592_" gradientUnits="userSpaceOnUse" x1="344.4367" y1="612.0829" x2="464.3649" y2="612.0829">
		<stop  offset="0" style="stop-color:#999999"/>
		<stop  offset="1" style="stop-color:#7C7C7C"/>
	</linearGradient>
	<path style="fill:url(#SVGID_00000131341436873960839550000015142529726376168592_);" d="M403.349,669.769l1.388-3.719
		c0,0,0.685,0.235,1.713,0.592c1.032,0.343,2.393,0.844,3.776,1.273c0.689,0.222,1.379,0.445,2.025,0.651
		c0.599,0.195,3.179,1.056,3.669,1.204c5.62-1.057,9.791-2.673,12.819-4.129c-8.979-14.191-21.064-13.85-41.707-27.464
		c-13.444-8.867,1.892-19.013,19.444-21.479c19.482-2.738,48.517-5.734,55.969-23.687c10.184-24.53-22.967-38.476-33.439-39.998
		c-9.24-1.342-15.164-2.993-26.691,0.286l3.138,1.096l-1.387,3.717c0,0-0.685-0.234-1.714-0.589
		c-1.031-0.344-2.393-0.846-3.776-1.274c-0.691-0.222-1.379-0.443-2.025-0.652c-0.599-0.196-3.408-1.011-3.897-1.16
		c-4.875,0.907-10.587,2.96-12.591,4.083c8.979,14.192,21.065,13.852,41.707,27.467c13.444,8.867-3.319,19.184-19.046,21.359
		c-19.488,2.696-48.915,5.854-56.368,23.807c-10.182,24.531,22.965,38.475,33.437,39.998c9.241,1.341,15.096,2.993,26.624-0.286
		L403.349,669.769z M420.419,564.803c0,0-0.656-0.303-1.642-0.756c-0.978-0.462-2.309-1.03-3.633-1.61
		c-1.336-0.556-2.642-1.115-3.675-1.517c-1.018-0.407-1.696-0.678-1.696-0.678l1.455-3.495c0,0,0.67,0.29,1.677,0.725
		c0.999,0.425,2.363,1.055,3.709,1.663c1.334,0.633,2.675,1.252,3.665,1.755c0.993,0.493,1.655,0.821,1.655,0.821L420.419,564.803z
		 M388.382,659.364c0,0,0.657,0.301,1.643,0.753c0.977,0.464,2.308,1.032,3.632,1.61c1.336,0.56,2.644,1.117,3.674,1.518
		c1.018,0.409,1.696,0.678,1.696,0.678l-1.455,3.496c0,0-0.67-0.289-1.677-0.725c-0.999-0.425-2.362-1.055-3.708-1.663
		c-1.335-0.634-2.675-1.251-3.664-1.756c-0.995-0.492-1.656-0.821-1.656-0.821L388.382,659.364z M366.633,648.756
		c0,0-0.128-0.132-0.35-0.36c-0.215-0.221-0.562-0.588-0.943-1.01c-0.761-0.853-1.741-2.031-2.587-3.331
		c-0.856-1.287-1.565-2.692-1.98-3.804c-0.212-0.552-0.358-1.025-0.453-1.359c-0.09-0.336-0.143-0.526-0.143-0.526l2.314-0.601
		c0,0,0.049,0.161,0.133,0.442c0.088,0.278,0.224,0.675,0.418,1.141c0.38,0.936,1.032,2.143,1.833,3.271
		c0.785,1.136,1.714,2.188,2.437,2.951c0.366,0.382,0.652,0.672,0.893,0.903c0.23,0.222,0.363,0.352,0.363,0.352L366.633,648.756z
		 M368.701,624.128c-0.254,0.178-0.607,0.446-1.022,0.775c-0.824,0.663-1.884,1.596-2.767,2.656
		c-0.447,0.526-0.853,1.076-1.185,1.619c-0.342,0.535-0.609,1.061-0.807,1.521c-0.097,0.229-0.189,0.44-0.247,0.618
		c-0.063,0.184-0.121,0.323-0.165,0.491c-0.089,0.31-0.14,0.486-0.14,0.486l-2.103-0.648c0,0,0.059-0.174,0.156-0.48
		c0.043-0.144,0.131-0.361,0.223-0.598c0.088-0.243,0.205-0.49,0.332-0.763c0.255-0.541,0.592-1.15,1.008-1.762
		c0.409-0.618,0.896-1.23,1.419-1.807c1.034-1.162,2.222-2.136,3.13-2.819c0.458-0.339,0.844-0.611,1.119-0.795
		c0.277-0.183,0.432-0.287,0.432-0.287l1.012,1.504C369.096,623.842,368.953,623.946,368.701,624.128z M382.965,656.652
		l-1.617,2.833c0,0-0.631-0.371-1.577-0.929c-0.473-0.281-1.023-0.596-1.62-0.98c-0.595-0.375-1.228-0.775-1.862-1.174
		c-0.619-0.422-1.236-0.839-1.817-1.231c-0.582-0.386-1.108-0.773-1.557-1.11c-0.902-0.67-1.503-1.117-1.503-1.117l1.755-2.329
		c0,0,0.586,0.411,1.468,1.022c0.438,0.311,0.952,0.666,1.523,1.022c0.569,0.36,1.174,0.744,1.779,1.13
		c0.615,0.363,1.23,0.727,1.806,1.066c0.566,0.345,1.138,0.648,1.616,0.913C382.323,656.3,382.965,656.652,382.965,656.652z
		 M383.402,617.236c-0.52,0.169-1.129,0.353-1.77,0.592c-0.641,0.23-1.324,0.477-2.009,0.723c-0.674,0.261-1.339,0.538-1.968,0.788
		c-0.627,0.24-1.21,0.504-1.71,0.738c-0.999,0.457-1.668,0.762-1.668,0.762l-0.647-1.475c0,0,0.676-0.283,1.692-0.707
		c0.503-0.216,1.099-0.46,1.764-0.692c0.656-0.238,1.356-0.504,2.058-0.748c0.703-0.227,1.407-0.453,2.066-0.666
		c0.657-0.223,1.283-0.388,1.815-0.543c1.063-0.304,1.773-0.507,1.773-0.507l0.338,1.177
		C385.137,616.678,384.443,616.9,383.402,617.236z M400.681,612.972c-1.08,0.189-2.51,0.488-3.941,0.773
		c-1.425,0.313-2.847,0.61-3.915,0.877c-1.068,0.255-1.781,0.425-1.781,0.425l-0.219-0.997c0,0,0.717-0.146,1.792-0.366
		c1.07-0.229,2.523-0.484,3.966-0.751c1.45-0.24,2.894-0.493,3.983-0.646c1.088-0.162,1.813-0.273,1.813-0.273l0.099,0.627
		C402.477,612.642,401.759,612.775,400.681,612.972z M416.185,610.481c-1.07,0.231-2.522,0.486-3.966,0.752
		c-1.449,0.241-2.893,0.494-3.983,0.646c-1.088,0.161-1.813,0.271-1.813,0.271l-0.1-0.627c0,0,0.72-0.133,1.797-0.329
		c1.08-0.188,2.511-0.488,3.942-0.773c1.425-0.313,2.847-0.611,3.915-0.878c1.069-0.253,1.78-0.424,1.78-0.424l0.22,0.997
		C417.977,610.116,417.262,610.262,416.185,610.481z M433.478,605.509c-0.504,0.214-1.099,0.46-1.763,0.692
		c-0.657,0.237-1.357,0.504-2.059,0.748c-0.703,0.228-1.407,0.453-2.065,0.667c-0.658,0.22-1.282,0.387-1.815,0.541
		c-1.063,0.305-1.773,0.508-1.773,0.508l-0.34-1.177c0,0,0.695-0.223,1.734-0.559c0.521-0.169,1.13-0.352,1.771-0.593
		c0.642-0.229,1.324-0.477,2.01-0.723c0.675-0.261,1.339-0.537,1.967-0.787c0.625-0.24,1.211-0.505,1.711-0.739
		c1-0.456,1.668-0.761,1.668-0.761l0.647,1.475C435.171,604.802,434.495,605.084,433.478,605.509z M435.634,573.55
		c0,0-0.587-0.409-1.468-1.021c-0.439-0.31-0.952-0.668-1.525-1.023c-0.567-0.36-1.174-0.746-1.777-1.131
		c-0.615-0.362-1.23-0.726-1.807-1.065c-0.566-0.345-1.137-0.649-1.615-0.914c-0.962-0.53-1.604-0.883-1.604-0.883l1.616-2.832
		c0,0,0.631,0.37,1.576,0.928c0.472,0.28,1.022,0.596,1.621,0.98c0.594,0.375,1.228,0.775,1.861,1.176
		c0.619,0.42,1.235,0.839,1.815,1.229c0.583,0.386,1.11,0.774,1.559,1.112c0.902,0.668,1.502,1.114,1.502,1.114L435.634,573.55z
		 M448.381,592.998c-0.042,0.142-0.131,0.361-0.221,0.598c-0.091,0.243-0.207,0.49-0.333,0.762
		c-0.256,0.543-0.594,1.151-1.009,1.763c-0.409,0.618-0.897,1.232-1.418,1.807c-1.035,1.161-2.222,2.135-3.132,2.819
		c-0.458,0.337-0.845,0.611-1.12,0.795c-0.273,0.183-0.433,0.287-0.433,0.287l-1.011-1.504c0,0,0.143-0.105,0.397-0.286
		c0.253-0.18,0.606-0.446,1.021-0.776c0.825-0.662,1.885-1.595,2.766-2.655c0.448-0.526,0.856-1.076,1.189-1.619
		c0.34-0.535,0.607-1.06,0.806-1.52c0.097-0.23,0.19-0.442,0.245-0.621c0.065-0.183,0.123-0.323,0.167-0.491
		c0.089-0.308,0.139-0.484,0.139-0.484l2.104,0.646C448.536,592.517,448.478,592.693,448.381,592.998z M446.31,586.401
		c0,0-0.048-0.161-0.134-0.441c-0.088-0.278-0.222-0.675-0.419-1.143c-0.381-0.936-1.032-2.142-1.832-3.269
		c-0.785-1.136-1.712-2.188-2.438-2.951c-0.365-0.382-0.65-0.672-0.893-0.903c-0.229-0.222-0.361-0.352-0.361-0.352l1.934-1.933
		c0,0,0.128,0.132,0.351,0.36c0.216,0.219,0.563,0.587,0.942,1.011c0.761,0.852,1.74,2.032,2.587,3.328
		c0.857,1.288,1.566,2.694,1.98,3.805c0.212,0.551,0.358,1.025,0.452,1.36c0.091,0.336,0.145,0.526,0.145,0.526L446.31,586.401z"/>
	<g>
		<g>
			<path style="fill:#7C7C7C;" d="M288.492,774.287v-0.258c-0.349,0.398-0.691,0.725-1.03,0.973
				c-0.339,0.252-0.706,0.441-1.102,0.57c-0.396,0.133-0.827,0.195-1.296,0.195c-0.621,0-1.195-0.131-1.725-0.393
				c-0.528-0.264-0.985-0.639-1.371-1.127c-0.388-0.486-0.68-1.058-0.879-1.719c-0.199-0.658-0.3-1.371-0.3-2.137
				c0-1.621,0.396-2.885,1.188-3.791c0.792-0.904,1.833-1.358,3.125-1.358c0.747,0,1.377,0.129,1.89,0.385
				c0.514,0.256,1.014,0.652,1.501,1.182v-3.826c0-0.533,0.105-0.934,0.318-1.207c0.212-0.271,0.514-0.408,0.907-0.408
				c0.393,0,0.694,0.125,0.906,0.375c0.213,0.252,0.318,0.619,0.318,1.108v11.435c0,0.494-0.113,0.863-0.342,1.111
				c-0.228,0.246-0.521,0.369-0.883,0.369c-0.355,0-0.648-0.127-0.879-0.383C288.607,775.127,288.492,774.762,288.492,774.287z
				 M283.392,770.479c0,0.703,0.109,1.301,0.328,1.795c0.219,0.494,0.518,0.865,0.897,1.115c0.38,0.25,0.795,0.377,1.244,0.377
				c0.456,0,0.872-0.119,1.249-0.357c0.377-0.236,0.678-0.602,0.902-1.092c0.225-0.49,0.337-1.106,0.337-1.838
				c0-0.691-0.112-1.285-0.337-1.783c-0.225-0.496-0.528-0.875-0.912-1.139c-0.383-0.262-0.803-0.392-1.258-0.392
				c-0.475,0-0.899,0.135-1.273,0.402c-0.373,0.269-0.663,0.654-0.868,1.158C283.494,769.229,283.392,769.813,283.392,770.479z"/>
			<path style="fill:#7C7C7C;" d="M299.926,771.135h-5.071c0.007,0.588,0.125,1.107,0.356,1.557c0.23,0.449,0.538,0.789,0.921,1.016
				c0.384,0.229,0.807,0.342,1.269,0.342c0.31,0,0.593-0.035,0.85-0.107c0.257-0.074,0.505-0.188,0.746-0.344
				c0.241-0.154,0.462-0.32,0.665-0.498c0.202-0.178,0.464-0.42,0.788-0.723c0.133-0.113,0.323-0.172,0.57-0.172
				c0.266,0,0.48,0.074,0.645,0.221c0.165,0.147,0.248,0.35,0.248,0.617c0,0.234-0.093,0.506-0.275,0.82
				c-0.185,0.314-0.462,0.615-0.831,0.902c-0.372,0.289-0.836,0.527-1.397,0.717c-0.56,0.191-1.204,0.285-1.933,0.285
				c-1.664,0-2.96-0.475-3.884-1.424c-0.925-0.949-1.387-2.238-1.387-3.865c0-0.768,0.113-1.479,0.342-2.133
				c0.228-0.656,0.56-1.217,0.997-1.685c0.437-0.469,0.975-0.828,1.615-1.078c0.639-0.25,1.349-0.375,2.127-0.375
				c1.013,0,1.882,0.213,2.606,0.641c0.726,0.428,1.27,0.98,1.63,1.656c0.359,0.678,0.541,1.369,0.541,2.07
				c0,0.654-0.186,1.076-0.56,1.27C301.131,771.037,300.604,771.135,299.926,771.135z M294.854,769.662h4.702
				c-0.063-0.887-0.304-1.551-0.718-1.99c-0.415-0.441-0.96-0.66-1.638-0.66c-0.647,0-1.177,0.223-1.591,0.668
				C295.195,768.127,294.944,768.787,294.854,769.662z"/>
			<path style="fill:#7C7C7C;" d="M311.741,772.377c0,0.715-0.174,1.328-0.522,1.838c-0.348,0.51-0.862,0.897-1.544,1.16
				c-0.68,0.262-1.508,0.393-2.483,0.393c-0.931,0-1.729-0.143-2.394-0.428c-0.664-0.283-1.155-0.641-1.472-1.066
				c-0.316-0.43-0.475-0.857-0.475-1.289c0-0.285,0.1-0.527,0.304-0.73c0.202-0.201,0.459-0.303,0.77-0.303
				c0.271,0,0.48,0.066,0.626,0.199c0.147,0.133,0.286,0.32,0.418,0.559c0.266,0.465,0.585,0.807,0.955,1.037
				c0.37,0.227,0.875,0.342,1.516,0.342c0.519,0,0.944-0.117,1.277-0.348c0.332-0.232,0.498-0.496,0.498-0.793
				c0-0.457-0.172-0.787-0.517-0.996c-0.346-0.209-0.914-0.41-1.705-0.6c-0.893-0.221-1.619-0.455-2.18-0.699
				c-0.56-0.242-1.009-0.564-1.344-0.963c-0.336-0.398-0.504-0.891-0.504-1.473c0-0.518,0.155-1.01,0.466-1.473
				c0.31-0.461,0.767-0.83,1.373-1.105c0.604-0.275,1.333-0.414,2.189-0.414c0.671,0,1.274,0.07,1.809,0.211
				c0.536,0.137,0.983,0.326,1.34,0.561c0.358,0.232,0.63,0.492,0.816,0.777c0.187,0.285,0.28,0.563,0.28,0.836
				c0,0.297-0.1,0.541-0.299,0.732c-0.199,0.188-0.482,0.285-0.851,0.285c-0.266,0-0.492-0.076-0.679-0.231
				c-0.186-0.15-0.4-0.379-0.641-0.682c-0.196-0.254-0.427-0.457-0.693-0.609c-0.266-0.152-0.627-0.227-1.083-0.227
				c-0.469,0-0.857,0.098-1.168,0.299c-0.31,0.199-0.466,0.447-0.466,0.744c0,0.273,0.114,0.496,0.342,0.67
				c0.228,0.176,0.535,0.32,0.922,0.434c0.387,0.113,0.917,0.252,1.596,0.416c0.804,0.197,1.46,0.432,1.971,0.703
				c0.509,0.272,0.896,0.594,1.159,0.965C311.61,771.481,311.741,771.902,311.741,772.377z"/>
			<path style="fill:#7C7C7C;" d="M314.39,764.019c-0.36,0-0.669-0.111-0.926-0.332c-0.256-0.221-0.385-0.535-0.385-0.941
				c0-0.367,0.132-0.668,0.395-0.906c0.263-0.238,0.568-0.357,0.916-0.357c0.336,0,0.634,0.107,0.893,0.324
				c0.26,0.215,0.391,0.527,0.391,0.94c0,0.4-0.128,0.711-0.381,0.935C315.039,763.906,314.738,764.019,314.39,764.019z
				 M315.673,766.697v7.494c0,0.519-0.124,0.912-0.371,1.178c-0.247,0.266-0.56,0.398-0.94,0.398c-0.38,0-0.688-0.135-0.926-0.408
				c-0.238-0.271-0.356-0.662-0.356-1.168v-7.418c0-0.512,0.118-0.898,0.356-1.158c0.237-0.26,0.546-0.391,0.926-0.391
				c0.381,0,0.693,0.131,0.94,0.391C315.549,765.875,315.673,766.236,315.673,766.697z"/>
			<path style="fill:#7C7C7C;" d="M327.031,767.125v7.531c0,0.861-0.093,1.604-0.276,2.225c-0.183,0.619-0.478,1.133-0.883,1.537
				c-0.405,0.404-0.936,0.707-1.591,0.902c-0.655,0.197-1.471,0.295-2.446,0.295c-0.893,0-1.69-0.125-2.394-0.375
				c-0.702-0.252-1.243-0.574-1.624-0.969c-0.379-0.396-0.57-0.803-0.57-1.221c0-0.316,0.108-0.576,0.324-0.773
				c0.215-0.201,0.475-0.301,0.778-0.301c0.38,0,0.712,0.168,0.997,0.504c0.139,0.17,0.283,0.344,0.432,0.517
				c0.149,0.176,0.315,0.324,0.494,0.447c0.181,0.123,0.397,0.215,0.65,0.275c0.254,0.059,0.546,0.09,0.874,0.09
				c0.672,0,1.192-0.094,1.563-0.281c0.37-0.185,0.63-0.447,0.778-0.783c0.149-0.334,0.236-0.693,0.262-1.078
				c0.025-0.383,0.044-0.998,0.057-1.848c-0.399,0.559-0.859,0.982-1.383,1.273c-0.521,0.291-1.145,0.438-1.865,0.438
				c-0.868,0-1.626-0.223-2.275-0.666c-0.648-0.443-1.147-1.063-1.495-1.861c-0.349-0.799-0.523-1.719-0.523-2.764
				c0-0.777,0.105-1.482,0.317-2.107c0.213-0.629,0.516-1.156,0.907-1.588c0.393-0.43,0.846-0.754,1.358-0.973
				c0.513-0.219,1.076-0.328,1.69-0.328c0.734,0,1.371,0.143,1.909,0.422c0.538,0.283,1.039,0.725,1.501,1.326v-0.352
				c0-0.449,0.11-0.797,0.332-1.045c0.222-0.246,0.507-0.371,0.855-0.371c0.5,0,0.832,0.164,0.996,0.49
				C326.948,766.041,327.031,766.512,327.031,767.125z M319.519,770.412c0,1.051,0.229,1.846,0.688,2.383
				c0.459,0.539,1.054,0.809,1.781,0.809c0.431,0,0.837-0.117,1.22-0.348c0.384-0.231,0.695-0.58,0.937-1.045
				c0.24-0.465,0.361-1.029,0.361-1.695c0-1.057-0.232-1.881-0.698-2.469c-0.466-0.588-1.078-0.883-1.839-0.883
				c-0.741,0-1.334,0.281-1.78,0.846C319.741,768.572,319.519,769.373,319.519,770.412z"/>
			<path style="fill:#7C7C7C;" d="M331.152,766.66v0.313c0.455-0.602,0.954-1.043,1.495-1.324c0.542-0.281,1.163-0.424,1.866-0.424
				c0.684,0,1.295,0.15,1.834,0.447c0.537,0.299,0.94,0.719,1.205,1.262c0.172,0.318,0.282,0.66,0.333,1.027
				c0.051,0.367,0.077,0.836,0.077,1.406v4.824c0,0.519-0.119,0.912-0.357,1.178c-0.237,0.266-0.546,0.398-0.926,0.398
				c-0.387,0-0.699-0.135-0.94-0.408c-0.241-0.271-0.36-0.662-0.36-1.168v-4.322c0-0.853-0.119-1.508-0.356-1.961
				c-0.238-0.451-0.711-0.68-1.421-0.68c-0.461,0-0.883,0.139-1.263,0.414c-0.38,0.275-0.658,0.654-0.836,1.135
				c-0.126,0.387-0.189,1.108-0.189,2.166v3.248c0,0.525-0.123,0.92-0.365,1.184c-0.244,0.262-0.559,0.393-0.945,0.393
				c-0.374,0-0.681-0.135-0.922-0.408c-0.24-0.271-0.36-0.662-0.36-1.168v-7.494c0-0.494,0.107-0.863,0.322-1.108
				c0.216-0.242,0.51-0.365,0.883-0.365c0.229,0,0.435,0.055,0.619,0.162c0.183,0.109,0.33,0.27,0.441,0.484
				C331.097,766.086,331.152,766.35,331.152,766.66z"/>
			<path style="fill:#7C7C7C;" d="M346.927,771.135h-5.071c0.007,0.588,0.124,1.107,0.356,1.557c0.23,0.449,0.537,0.789,0.921,1.016
				c0.382,0.229,0.806,0.342,1.268,0.342c0.31,0,0.594-0.035,0.851-0.107c0.256-0.074,0.504-0.188,0.746-0.344
				c0.239-0.154,0.461-0.32,0.665-0.498c0.201-0.178,0.464-0.42,0.787-0.723c0.133-0.113,0.323-0.172,0.57-0.172
				c0.266,0,0.482,0.074,0.646,0.221c0.165,0.147,0.247,0.35,0.247,0.617c0,0.234-0.092,0.506-0.275,0.82
				c-0.185,0.314-0.461,0.615-0.832,0.902c-0.37,0.289-0.835,0.527-1.396,0.717c-0.561,0.191-1.205,0.285-1.933,0.285
				c-1.665,0-2.96-0.475-3.886-1.424c-0.923-0.949-1.386-2.238-1.386-3.865c0-0.768,0.114-1.479,0.342-2.133
				c0.227-0.656,0.56-1.217,0.998-1.685c0.436-0.469,0.975-0.828,1.614-1.078c0.639-0.25,1.349-0.375,2.128-0.375
				c1.013,0,1.881,0.213,2.605,0.641c0.726,0.428,1.269,0.98,1.63,1.656c0.36,0.678,0.542,1.369,0.542,2.07
				c0,0.654-0.187,1.076-0.561,1.27C348.131,771.037,347.604,771.135,346.927,771.135z M341.855,769.662h4.701
				c-0.063-0.887-0.303-1.551-0.717-1.99c-0.415-0.441-0.961-0.66-1.639-0.66c-0.647,0-1.177,0.223-1.592,0.668
				C342.194,768.127,341.944,768.787,341.855,769.662z"/>
			<path style="fill:#7C7C7C;" d="M357.496,774.287v-0.258c-0.348,0.398-0.691,0.725-1.03,0.973
				c-0.339,0.252-0.705,0.441-1.102,0.57c-0.395,0.133-0.827,0.195-1.296,0.195c-0.621,0-1.195-0.131-1.724-0.393
				c-0.529-0.264-0.986-0.639-1.373-1.127c-0.387-0.486-0.679-1.058-0.878-1.719c-0.2-0.658-0.3-1.371-0.3-2.137
				c0-1.621,0.396-2.885,1.188-3.791c0.791-0.904,1.833-1.358,3.125-1.358c0.747,0,1.377,0.129,1.89,0.385s1.014,0.652,1.5,1.182
				v-3.826c0-0.533,0.106-0.934,0.319-1.207c0.211-0.271,0.515-0.408,0.907-0.408c0.392,0,0.694,0.125,0.906,0.375
				c0.212,0.252,0.318,0.619,0.318,1.108v11.435c0,0.494-0.113,0.863-0.342,1.111c-0.228,0.246-0.521,0.369-0.883,0.369
				c-0.354,0-0.647-0.127-0.879-0.383C357.612,775.127,357.496,774.762,357.496,774.287z M352.396,770.479
				c0,0.703,0.108,1.301,0.327,1.795c0.219,0.494,0.518,0.865,0.898,1.115c0.38,0.25,0.794,0.377,1.243,0.377
				c0.457,0,0.873-0.119,1.249-0.357c0.377-0.236,0.679-0.602,0.902-1.092c0.226-0.49,0.338-1.106,0.338-1.838
				c0-0.691-0.112-1.285-0.338-1.783c-0.224-0.496-0.528-0.875-0.911-1.139c-0.384-0.262-0.803-0.392-1.259-0.392
				c-0.475,0-0.899,0.135-1.272,0.402c-0.373,0.269-0.663,0.654-0.869,1.158C352.499,769.229,352.396,769.813,352.396,770.479z"/>
			<path style="fill:#7C7C7C;" d="M368.095,762.852v3.959c0.487-0.506,0.984-0.894,1.491-1.162c0.506-0.269,1.134-0.404,1.881-0.404
				c0.861,0,1.615,0.205,2.266,0.611c0.647,0.41,1.151,1.002,1.51,1.777c0.357,0.775,0.537,1.695,0.537,2.76
				c0,0.785-0.101,1.504-0.3,2.16c-0.199,0.656-0.489,1.225-0.869,1.705c-0.38,0.48-0.841,0.854-1.382,1.117
				c-0.542,0.262-1.139,0.393-1.79,0.393c-0.399,0-0.775-0.047-1.126-0.143c-0.352-0.094-0.651-0.219-0.897-0.375
				c-0.246-0.154-0.457-0.315-0.632-0.479c-0.174-0.164-0.404-0.412-0.689-0.742v0.258c0,0.486-0.117,0.855-0.352,1.107
				c-0.233,0.25-0.531,0.373-0.893,0.373c-0.367,0-0.66-0.123-0.879-0.373c-0.219-0.252-0.327-0.621-0.327-1.107v-11.322
				c0-0.525,0.105-0.924,0.317-1.191c0.212-0.269,0.509-0.404,0.889-0.404c0.399,0,0.706,0.129,0.921,0.385
				C367.986,762.012,368.095,762.375,368.095,762.852z M368.218,770.555c0,1.031,0.236,1.824,0.708,2.377
				c0.472,0.555,1.091,0.834,1.856,0.834c0.652,0,1.215-0.283,1.686-0.852c0.472-0.566,0.708-1.379,0.708-2.436
				c0-0.684-0.098-1.273-0.294-1.768c-0.197-0.494-0.475-0.875-0.836-1.144c-0.361-0.268-0.782-0.402-1.264-0.402
				c-0.493,0-0.935,0.135-1.32,0.402c-0.386,0.269-0.689,0.658-0.912,1.168C368.329,769.244,368.218,769.852,368.218,770.555z"/>
			<path style="fill:#7C7C7C;" d="M379.141,776.092l0.237-0.58l-3.191-8.035c-0.196-0.461-0.295-0.799-0.295-1.008
				c0-0.221,0.058-0.426,0.171-0.615c0.114-0.191,0.271-0.344,0.47-0.457c0.2-0.115,0.407-0.172,0.623-0.172
				c0.373,0,0.654,0.119,0.846,0.357c0.19,0.236,0.357,0.576,0.503,1.02l2.194,6.383l2.08-5.936c0.164-0.48,0.313-0.857,0.446-1.131
				c0.133-0.272,0.273-0.455,0.422-0.549c0.148-0.096,0.359-0.144,0.632-0.144c0.197,0,0.385,0.053,0.565,0.158
				c0.181,0.104,0.319,0.244,0.418,0.422c0.098,0.178,0.147,0.363,0.147,0.56c-0.026,0.119-0.066,0.291-0.124,0.514
				c-0.058,0.221-0.126,0.447-0.208,0.674l-3.382,8.852c-0.292,0.779-0.576,1.389-0.855,1.832c-0.278,0.443-0.646,0.785-1.106,1.021
				c-0.459,0.238-1.078,0.357-1.856,0.357c-0.76,0-1.33-0.082-1.709-0.246c-0.381-0.166-0.57-0.467-0.57-0.904
				c0-0.297,0.09-0.527,0.271-0.688c0.18-0.162,0.447-0.244,0.801-0.244c0.14,0,0.276,0.019,0.409,0.059
				c0.165,0.037,0.307,0.057,0.427,0.057c0.298,0,0.532-0.043,0.704-0.133c0.17-0.088,0.323-0.242,0.46-0.461
				C378.806,776.838,378.963,776.516,379.141,776.092z"/>
		</g>
		<g>
			<path style="fill:#7C7C7C;" d="M416.703,765.449h0.619v-0.777c0-0.814,0.1-1.457,0.307-1.938
				c0.203-0.478,0.555-0.826,1.047-1.045c0.49-0.217,1.162-0.326,2.016-0.326c1.52,0,2.273,0.367,2.273,1.113
				c0,0.238-0.08,0.445-0.24,0.615c-0.154,0.17-0.344,0.256-0.559,0.256c-0.1,0-0.277-0.018-0.527-0.059
				c-0.236-0.033-0.451-0.057-0.623-0.057c-0.467,0-0.766,0.141-0.904,0.416c-0.127,0.275-0.195,0.668-0.195,1.184v0.617h0.633
				c0.99,0,1.48,0.297,1.48,0.896c0,0.418-0.127,0.69-0.393,0.805c-0.262,0.113-0.623,0.17-1.088,0.17h-0.633v6.871
				c0,0.512-0.121,0.9-0.369,1.168c-0.242,0.273-0.555,0.406-0.943,0.406c-0.367,0-0.67-0.133-0.918-0.406
				c-0.244-0.268-0.363-0.656-0.363-1.168v-6.871h-0.715c-0.389,0-0.682-0.084-0.893-0.262c-0.209-0.17-0.314-0.398-0.314-0.678
				C415.4,765.758,415.834,765.449,416.703,765.449"/>
			<path style="fill:#7C7C7C;" d="M425.193,772.023v2.168c0,0.523-0.133,0.92-0.375,1.18c-0.246,0.266-0.559,0.395-0.938,0.395
				c-0.381,0-0.688-0.131-0.926-0.4c-0.236-0.264-0.361-0.656-0.361-1.174v-7.223c0-1.166,0.42-1.748,1.262-1.748
				c0.434,0,0.742,0.135,0.934,0.408c0.189,0.273,0.295,0.674,0.316,1.207c0.309-0.533,0.625-0.934,0.949-1.207
				c0.332-0.273,0.762-0.408,1.309-0.408c0.549,0,1.072,0.135,1.586,0.408c0.516,0.273,0.772,0.637,0.772,1.084
				c0,0.314-0.111,0.58-0.326,0.781c-0.221,0.209-0.455,0.313-0.707,0.313c-0.1,0-0.33-0.063-0.691-0.18
				c-0.365-0.113-0.69-0.174-0.963-0.174c-0.381,0-0.693,0.103-0.932,0.299c-0.242,0.205-0.432,0.496-0.565,0.887
				c-0.129,0.395-0.219,0.865-0.273,1.404C425.215,770.584,425.193,771.246,425.193,772.023"/>
			<path style="fill:#7C7C7C;" d="M437.113,771.131h-5.074c0.01,0.588,0.125,1.111,0.355,1.559c0.234,0.447,0.539,0.787,0.924,1.017
				c0.385,0.227,0.805,0.34,1.27,0.34c0.31,0,0.592-0.033,0.85-0.111c0.254-0.07,0.504-0.185,0.744-0.342
				c0.242-0.152,0.461-0.318,0.664-0.5c0.203-0.174,0.467-0.416,0.791-0.719c0.135-0.113,0.324-0.174,0.568-0.174
				c0.268,0,0.48,0.074,0.648,0.223c0.166,0.146,0.244,0.35,0.244,0.617c0,0.234-0.09,0.508-0.268,0.818
				c-0.188,0.318-0.463,0.617-0.836,0.906c-0.375,0.285-0.84,0.527-1.398,0.715c-0.559,0.189-1.205,0.285-1.932,0.285
				c-1.67,0-2.963-0.473-3.887-1.422c-0.924-0.951-1.391-2.242-1.391-3.867c0-0.768,0.117-1.479,0.348-2.135
				c0.225-0.658,0.557-1.217,0.998-1.688c0.436-0.471,0.971-0.828,1.613-1.078c0.637-0.25,1.346-0.375,2.127-0.375
				c1.012,0,1.881,0.215,2.607,0.647c0.723,0.422,1.273,0.977,1.629,1.654c0.361,0.68,0.541,1.367,0.541,2.074
				c0,0.648-0.188,1.07-0.561,1.266C438.316,771.035,437.791,771.131,437.113,771.131 M432.039,769.656h4.701
				c-0.063-0.885-0.297-1.549-0.713-1.986c-0.418-0.441-0.959-0.66-1.641-0.66c-0.646,0-1.178,0.221-1.592,0.67
				C432.381,768.125,432.127,768.783,432.039,769.656"/>
			<path style="fill:#7C7C7C;" d="M447.9,771.131h-5.072c0.006,0.588,0.125,1.111,0.353,1.559c0.233,0.447,0.539,0.787,0.922,1.017
				c0.383,0.227,0.805,0.34,1.272,0.34c0.307,0,0.592-0.033,0.844-0.111c0.26-0.07,0.506-0.185,0.75-0.342
				c0.242-0.152,0.461-0.318,0.664-0.5c0.199-0.174,0.465-0.416,0.789-0.719c0.135-0.113,0.326-0.174,0.568-0.174
				c0.268,0,0.482,0.074,0.65,0.223c0.164,0.146,0.24,0.35,0.24,0.617c0,0.234-0.088,0.508-0.273,0.818
				c-0.178,0.318-0.455,0.617-0.83,0.906c-0.371,0.285-0.84,0.527-1.396,0.715c-0.557,0.189-1.207,0.285-1.934,0.285
				c-1.668,0-2.959-0.473-3.887-1.422c-0.924-0.951-1.389-2.242-1.389-3.867c0-0.768,0.115-1.479,0.348-2.135
				c0.227-0.658,0.559-1.217,0.996-1.688c0.436-0.471,0.973-0.828,1.613-1.078c0.639-0.25,1.352-0.375,2.129-0.375
				c1.01,0,1.879,0.215,2.613,0.647c0.721,0.422,1.266,0.977,1.621,1.654c0.359,0.68,0.545,1.367,0.545,2.074
				c0,0.648-0.191,1.07-0.56,1.266C449.102,771.035,448.576,771.131,447.9,771.131 M442.828,769.656h4.701
				c-0.065-0.885-0.305-1.549-0.715-1.986c-0.422-0.441-0.963-0.66-1.643-0.66c-0.646,0-1.176,0.221-1.594,0.67
				C443.166,768.125,442.912,768.783,442.828,769.656"/>
			<path style="fill:#7C7C7C;" d="M453.58,766.68v0.31c0.486-0.602,0.994-1.043,1.525-1.324c0.517-0.285,1.117-0.428,1.781-0.428
				c0.795,0,1.535,0.209,2.207,0.617c0.672,0.414,1.199,1.016,1.59,1.807c0.389,0.795,0.586,1.73,0.586,2.815
				c0,0.795-0.113,1.531-0.336,2.201c-0.225,0.668-0.537,1.227-0.93,1.68c-0.393,0.449-0.855,0.801-1.389,1.045
				c-0.543,0.242-1.111,0.363-1.728,0.363c-0.738,0-1.363-0.148-1.865-0.447c-0.502-0.291-0.982-0.733-1.441-1.305v3.893
				c0,1.135-0.416,1.709-1.244,1.709c-0.49,0-0.809-0.146-0.971-0.439c-0.152-0.299-0.234-0.723-0.234-1.291v-11.193
				c0-0.494,0.107-0.859,0.32-1.107c0.215-0.238,0.512-0.363,0.885-0.363c0.369,0,0.666,0.125,0.897,0.373
				C453.467,765.848,453.58,766.205,453.58,766.68 M458.664,770.447c0-0.686-0.105-1.273-0.315-1.764
				c-0.209-0.492-0.498-0.867-0.865-1.127c-0.367-0.264-0.783-0.396-1.232-0.396c-0.715,0-1.318,0.283-1.809,0.844
				c-0.492,0.566-0.74,1.394-0.74,2.492c0,1.027,0.244,1.834,0.736,2.406c0.486,0.574,1.086,0.859,1.813,0.859
				c0.428,0,0.83-0.127,1.197-0.373c0.371-0.252,0.664-0.627,0.883-1.127C458.553,771.76,458.664,771.154,458.664,770.447"/>
			<path style="fill:#7C7C7C;" d="M463.881,764.014c-0.363,0-0.67-0.115-0.924-0.336c-0.26-0.223-0.387-0.531-0.387-0.935
				c0-0.369,0.131-0.67,0.397-0.91c0.262-0.234,0.566-0.355,0.914-0.355c0.34,0,0.635,0.105,0.892,0.318
				c0.26,0.219,0.391,0.535,0.391,0.947c0,0.398-0.127,0.711-0.377,0.935C464.533,763.898,464.232,764.014,463.881,764.014
				 M465.164,766.691v7.502c0,0.516-0.123,0.908-0.369,1.172c-0.25,0.27-0.561,0.4-0.941,0.4c-0.381,0-0.685-0.133-0.928-0.406
				c-0.234-0.275-0.355-0.664-0.355-1.166v-7.428c0-0.51,0.121-0.895,0.355-1.154c0.242-0.264,0.547-0.391,0.928-0.391
				c0.381,0,0.691,0.127,0.941,0.391C465.041,765.871,465.164,766.234,465.164,766.691"/>
			<path style="fill:#7C7C7C;" d="M473.523,774.582l-2.283-3.766l-1.408,1.328v2.066c0,0.498-0.133,0.881-0.397,1.148
				c-0.258,0.273-0.566,0.406-0.906,0.406c-0.398,0-0.715-0.131-0.941-0.4c-0.227-0.264-0.344-0.656-0.344-1.174v-11.063
				c0-0.574,0.115-1.012,0.332-1.314c0.223-0.305,0.545-0.451,0.953-0.451c0.398,0,0.713,0.137,0.949,0.41
				c0.234,0.272,0.354,0.674,0.354,1.203v6.293l2.916-3.063c0.361-0.377,0.633-0.641,0.826-0.779c0.19-0.139,0.42-0.207,0.69-0.207
				c0.326,0,0.594,0.104,0.816,0.309c0.211,0.205,0.32,0.465,0.32,0.773c0,0.379-0.354,0.889-1.055,1.522l-1.377,1.262l2.658,4.184
				c0.193,0.313,0.34,0.543,0.424,0.705c0.084,0.16,0.131,0.32,0.131,0.463c0,0.412-0.115,0.734-0.342,0.975
				c-0.225,0.236-0.523,0.354-0.885,0.354c-0.316,0-0.564-0.08-0.734-0.256C474.051,775.338,473.814,775.027,473.523,774.582"/>
			<path style="fill:#7C7C7C;" d="M479.16,775.766c-0.393,0-0.729-0.125-1.014-0.381c-0.285-0.248-0.43-0.606-0.43-1.065
				c0-0.385,0.139-0.719,0.41-0.994c0.275-0.279,0.607-0.42,1.008-0.42c0.398,0,0.736,0.141,1.023,0.412
				c0.279,0.275,0.422,0.613,0.422,1.002c0,0.453-0.143,0.809-0.422,1.061C479.871,775.641,479.539,775.766,479.16,775.766"/>
			<path style="fill:#7C7C7C;" d="M492.059,772.557c0,0.32-0.098,0.668-0.291,1.033c-0.191,0.371-0.488,0.719-0.887,1.051
				c-0.395,0.332-0.891,0.602-1.494,0.803c-0.602,0.203-1.281,0.307-2.031,0.307c-1.605,0-2.858-0.469-3.758-1.4
				c-0.895-0.935-1.346-2.189-1.346-3.76c0-1.068,0.205-2.006,0.619-2.824c0.408-0.814,1.004-1.447,1.781-1.895
				c0.779-0.447,1.717-0.67,2.795-0.67c0.674,0,1.287,0.098,1.852,0.295c0.561,0.195,1.033,0.451,1.426,0.76
				c0.387,0.314,0.686,0.642,0.889,0.992c0.207,0.352,0.309,0.68,0.309,0.986c0,0.309-0.113,0.572-0.344,0.787
				c-0.234,0.215-0.516,0.324-0.838,0.324c-0.219,0-0.398-0.057-0.541-0.166c-0.145-0.111-0.305-0.289-0.479-0.541
				c-0.318-0.478-0.646-0.842-0.996-1.08c-0.344-0.242-0.781-0.361-1.314-0.361c-0.762,0-1.383,0.297-1.854,0.896
				c-0.467,0.596-0.703,1.42-0.703,2.455c0,0.488,0.063,0.939,0.184,1.348c0.117,0.406,0.291,0.756,0.52,1.043
				c0.23,0.287,0.504,0.506,0.826,0.654c0.324,0.154,0.682,0.227,1.065,0.227c0.521,0,0.967-0.121,1.336-0.361
				c0.377-0.24,0.703-0.607,0.986-1.102c0.158-0.291,0.328-0.518,0.51-0.684c0.182-0.164,0.408-0.25,0.676-0.25
				c0.316,0,0.58,0.123,0.785,0.363C491.951,772.027,492.059,772.285,492.059,772.557"/>
			<path style="fill:#7C7C7C;" d="M503.248,770.496c0,0.77-0.121,1.484-0.355,2.139c-0.246,0.652-0.592,1.213-1.049,1.678
				c-0.455,0.469-1.002,0.828-1.633,1.08c-0.639,0.248-1.35,0.375-2.139,0.375c-0.785,0-1.492-0.127-2.121-0.383
				c-0.623-0.248-1.17-0.613-1.625-1.082c-0.461-0.477-0.809-1.033-1.053-1.676c-0.228-0.645-0.35-1.356-0.35-2.131
				c0-0.787,0.123-1.506,0.357-2.158c0.242-0.654,0.59-1.213,1.039-1.674c0.451-0.461,0.994-0.816,1.631-1.07
				c0.644-0.248,1.35-0.373,2.121-0.373c0.785,0,1.498,0.125,2.139,0.381c0.639,0.252,1.184,0.615,1.645,1.08
				c0.457,0.475,0.803,1.029,1.039,1.672C503.129,769.004,503.248,769.713,503.248,770.496 M500.645,770.496
				c0-1.059-0.234-1.881-0.697-2.469c-0.463-0.596-1.09-0.889-1.875-0.889c-0.508,0-0.955,0.133-1.342,0.395
				c-0.387,0.262-0.682,0.648-0.891,1.164c-0.209,0.514-0.314,1.113-0.314,1.799c0,0.678,0.102,1.268,0.309,1.773
				c0.209,0.51,0.502,0.897,0.887,1.166c0.385,0.266,0.834,0.404,1.352,0.404c0.785,0,1.412-0.297,1.875-0.892
				C500.41,772.357,500.645,771.537,500.645,770.496"/>
			<path style="fill:#7C7C7C;" d="M513.141,770.685v3.447c0,0.547-0.121,0.951-0.369,1.227c-0.25,0.273-0.572,0.408-0.978,0.408
				c-0.393,0-0.713-0.135-0.951-0.408c-0.246-0.275-0.371-0.68-0.371-1.227v-4.131c0-0.654-0.021-1.162-0.064-1.525
				c-0.045-0.354-0.168-0.654-0.361-0.883c-0.197-0.234-0.51-0.352-0.932-0.352c-0.85,0-1.406,0.291-1.676,0.881
				c-0.268,0.576-0.406,1.414-0.406,2.508v3.502c0,0.537-0.123,0.945-0.361,1.223c-0.25,0.273-0.568,0.412-0.965,0.412
				c-0.396,0-0.717-0.139-0.967-0.412c-0.252-0.277-0.377-0.686-0.377-1.223v-7.42c0-0.488,0.111-0.859,0.336-1.111
				c0.228-0.256,0.525-0.381,0.889-0.381c0.358,0,0.652,0.123,0.893,0.355c0.236,0.238,0.354,0.566,0.354,0.984v0.244
				c0.453-0.535,0.936-0.932,1.445-1.18c0.516-0.26,1.082-0.387,1.713-0.387c0.65,0,1.211,0.131,1.678,0.391
				c0.469,0.26,0.853,0.654,1.16,1.176c0.44-0.527,0.908-0.922,1.41-1.18c0.5-0.258,1.053-0.387,1.662-0.387
				c0.705,0,1.32,0.143,1.834,0.42c0.51,0.277,0.893,0.68,1.146,1.195c0.221,0.473,0.33,1.209,0.33,2.217v5.063
				c0,0.547-0.121,0.951-0.367,1.227c-0.246,0.273-0.574,0.408-0.979,0.408c-0.394,0-0.715-0.139-0.965-0.412
				c-0.25-0.277-0.377-0.686-0.377-1.223v-4.361c0-0.559-0.023-1.004-0.068-1.338c-0.047-0.338-0.178-0.621-0.383-0.848
				c-0.213-0.227-0.531-0.344-0.953-0.344c-0.342,0-0.666,0.107-0.975,0.309c-0.307,0.197-0.547,0.477-0.721,0.813
				C513.238,768.801,513.141,769.576,513.141,770.685"/>
		</g>
		<g>
			<path style="fill:#7C7C7C;" d="M392.435,769.867c-0.002-0.004-0.002-0.01-0.002-0.018
				C392.434,769.857,392.434,769.863,392.435,769.867z"/>
			<path style="fill:#7C7C7C;" d="M392.566,770.697c0.002,0,0.002,0,0.003,0c-0.05-0.236-0.089-0.471-0.119-0.703
				C392.48,770.229,392.52,770.463,392.566,770.697z"/>
			<path style="fill:#7C7C7C;" d="M393.425,773.104c-0.006-0.01-0.011-0.022-0.018-0.033
				C393.414,773.082,393.419,773.094,393.425,773.104z"/>
			<path style="fill:#7C7C7C;" d="M393.343,772.943c-0.023-0.045-0.044-0.09-0.066-0.135
				C393.299,772.856,393.32,772.898,393.343,772.943z"/>
			<path style="fill:#7C7C7C;" d="M392.808,771.623c0.127,0.4,0.279,0.789,0.457,1.158c-0.181-0.377-0.33-0.766-0.454-1.158
				C392.81,771.623,392.809,771.623,392.808,771.623z"/>
			<path style="fill:#7C7C7C;" d="M402.473,759.932c0.501,0,0.871,0.039,1.295,0.111l0.121-0.764c0,0-1.172-0.359-2.711-0.234
				l-0.121-0.414c0.479-0.102,0.838-0.527,0.838-1.035c0-0.582-0.475-1.053-1.058-1.053s-1.056,0.471-1.056,1.053
				c0,0.508,0.358,0.934,0.836,1.035l0.134,0.463c-1.634,0.225-2.935,0.861-2.935,0.861l0.23,0.705
				c0.988-0.328,1.846-0.529,2.624-0.613C401.433,759.967,402.006,759.932,402.473,759.932z"/>
			<path style="fill:#7C7C7C;" d="M393.405,763.789l0.006-0.008c0.038-0.049,0.075-0.096,0.113-0.143l-0.314-0.225l-0.487-0.358
				c-0.027,0.039-0.795,0.744-1.401,2.049c-0.025-0.041-0.056-0.082-0.09-0.119c-0.182-0.199-0.436-0.301-0.759-0.295
				c-0.004,0-0.009,0-0.015,0c-0.199,0-0.337-0.066-0.427-0.146c0.09-0.113,0.144-0.256,0.144-0.414c0-0.367-0.3-0.668-0.67-0.668
				c-0.368,0-0.668,0.301-0.668,0.668c0,0.371,0.3,0.67,0.668,0.67c0.059,0,0.113-0.01,0.167-0.021
				c0.165,0.184,0.426,0.342,0.808,0.334c0.197-0.002,0.341,0.049,0.438,0.156c0.111,0.121,0.148,0.295,0.16,0.428
				c-0.001,0.002-0.001,0.004-0.003,0.004c-0.436,1.189-0.311,2.67-0.311,2.67l1.058,0.043c0.022-0.539,0.099-1.483,0.371-2.231
				C392.719,764.734,393.378,763.828,393.405,763.789z"/>
			<path style="fill:#7C7C7C;" d="M411.672,760.815c-0.367,0-0.668,0.299-0.668,0.67c0,0.057,0.008,0.111,0.023,0.164
				c-0.184,0.166-0.344,0.428-0.338,0.811c0.004,0.197-0.047,0.34-0.154,0.438c-0.084,0.074-0.191,0.115-0.295,0.141
				c-0.787-1.104-1.756-1.775-1.756-1.775l-0.76,0.813c0.574,0.521,1.16,1.176,1.729,1.99c0.395,0.564,0.799,1.291,1.137,2.016
				l1.023-0.486c0,0-0.467-1.156-1.125-2.192c0.113-0.041,0.229-0.103,0.33-0.193c0.201-0.18,0.299-0.436,0.293-0.758
				c-0.002-0.207,0.066-0.348,0.148-0.441c0.115,0.088,0.258,0.142,0.412,0.142c0.371,0,0.67-0.299,0.67-0.668
				C412.342,761.113,412.043,760.815,411.672,760.815z"/>
			<path style="fill:#7C7C7C;" d="M409.016,770.018c-1.41,0.686-3.729,1.594-6.782,2.02c-1.198,0.166-2.359,0.227-3.428,0.227
				c-1.391,0-2.62-0.103-3.563-0.223c-1.076-0.135-1.918-0.301-2.433-0.418c0.124,0.393,0.274,0.781,0.454,1.158
				c0.003,0.01,0.008,0.021,0.013,0.027c0.022,0.045,0.043,0.09,0.066,0.135c0.021,0.043,0.043,0.086,0.064,0.127
				c0.007,0.012,0.012,0.023,0.018,0.033c0.303,0.57,0.666,1.094,1.08,1.549c1.44,1.574,2.907,1.824,2.921,1.826l0.023,0.002
				l0.022,0.008c0.013,0.006,1.313,0.426,3.291,0.426c1.945,0,3.855-0.393,5.674-1.168c1.348-0.69,2.623-1.736,3.254-2.67
				c0.488-0.723,0.842-1.492,1.051-2.293c0.111-0.426,0.199-1.107,0.146-1.826C410.49,769.225,409.863,769.604,409.016,770.018z"/>
			<path style="fill:#7C7C7C;" d="M393.857,764.123c-0.041,0.061-0.652,0.926-1.135,2.254c-0.362,0.994-0.346,2.443-0.346,2.459
				v0.004c0,0.34,0.018,0.676,0.057,1.01c0,0.008,0,0.014,0.002,0.018c0.004,0.043,0.011,0.084,0.015,0.127
				c0.03,0.233,0.069,0.467,0.119,0.703c0.7,0.178,4.878,1.152,9.548,0.502c2.928-0.408,5.15-1.273,6.5-1.928
				c1.121-0.543,1.842-1.035,2.119-1.238c-0.277-1.027-1.041-2.641-1.742-3.646c-2.006-2.865-4.168-3.6-5.277-3.783
				c-0.425-0.068-0.764-0.109-1.244-0.109c-0.447,0-1.002,0.037-1.743,0.115c-0.743,0.076-1.571,0.272-2.532,0.596
				c-1.348,0.451-2.567,1.158-3.526,2.047l-0.033,0.031C394.496,763.414,394.199,763.69,393.857,764.123z M406.127,763.457
				c0.961,0,1.744,0.781,1.744,1.742c0,0.963-0.783,1.744-1.744,1.744c-0.961,0-1.742-0.781-1.742-1.744
				C404.385,764.238,405.166,763.457,406.127,763.457z M397.886,763.387c1.557,0,2.816,1.262,2.816,2.818
				c0,1.555-1.26,2.814-2.816,2.814c-1.555,0-2.816-1.26-2.816-2.814C395.069,764.648,396.331,763.387,397.886,763.387z"/>
		</g>
	</g>
</g>
</svg>
